<?xml version="1.0" encoding="utf-8"?>
<!-- Generator: Adobe Illustrator 17.0.0, SVG Export Plug-In . SVG Version: 6.00 Build 0)  -->
<!DOCTYPE svg PUBLIC "-//W3C//DTD SVG 1.1//EN" "http://www.w3.org/Graphics/SVG/1.1/DTD/svg11.dtd">
<svg version="1.1" id="Layer_1" xmlns="http://www.w3.org/2000/svg" xmlns:xlink="http://www.w3.org/1999/xlink" x="0px" y="0px"
	 width="50px" height="50px" viewBox="0 0 50 50" enable-background="new 0 0 50 50" xml:space="preserve">
<path fill="#FFFFFF" d="M24.896,0.667c-13.381,0-24.229,10.848-24.229,24.229s10.848,24.229,24.229,24.229
	s24.229-10.848,24.229-24.229S38.277,0.667,24.896,0.667z M15.684,43.849c0.015,0.328-0.078,0.553-0.281,0.799
	C15.203,44.895,14.945,45,14.631,45H14.52c-0.299,0-0.56-0.039-0.784-0.239c-0.224-0.202-0.351-0.421-0.38-0.72
	c-0.211-1.881-0.235-3.711-0.078-5.525c0.157-1.814,0.375-3.425,0.66-4.85s0.687-2.809,1.21-4.161
	c0.522-1.35,1.037-2.509,1.544-3.478c0.508-0.971,1.059-1.903,1.657-2.799c0.909-1.344,1.895-2.574,2.955-3.694
	c-0.238-0.521-0.358-1.097-0.358-1.724c0-1.193,0.421-2.212,1.265-3.056c0.842-0.842,1.861-1.264,3.056-1.264
	c1.193,0,2.212,0.421,3.056,1.264c0.842,0.844,1.264,1.863,1.264,3.056c0,1.195-0.425,2.214-1.275,3.056
	c-0.851,0.844-1.866,1.265-3.045,1.265c-0.896,0-1.724-0.261-2.486-0.784c-0.926,1.001-1.783,2.09-2.574,3.27
	C16.52,30.155,15.012,36.566,15.684,43.849z M36.371,24.595c-1.164,2-2.751,3.582-4.757,4.746c-2.008,1.164-4.191,1.747-6.55,1.747
	c-0.955,0-1.933-0.104-2.932-0.313c-0.313-0.075-0.557-0.25-0.728-0.526c-0.171-0.276-0.22-0.571-0.145-0.885
	c0.073-0.299,0.247-0.534,0.514-0.705c0.269-0.171,0.56-0.227,0.873-0.168c0.761,0.194,1.567,0.291,2.418,0.291
	c1.448,0,2.836-0.282,4.165-0.851c1.329-0.566,2.47-1.327,3.425-2.284c0.955-0.955,1.717-2.096,2.284-3.425
	c0.566-1.327,0.851-2.716,0.851-4.165c0-1.446-0.284-2.836-0.851-4.165c-0.566-1.327-1.329-2.47-2.284-3.425
	c-0.955-0.955-2.096-1.716-3.425-2.284c-1.329-0.566-2.717-0.851-4.165-0.851c-1.448,0-2.836,0.284-4.165,0.851
	c-1.329,0.568-2.47,1.329-3.425,2.284c-0.955,0.955-1.717,2.098-2.284,3.425c-0.566,1.329-0.851,2.718-0.851,4.165
	c0,1.703,0.389,3.329,1.164,4.881c0.149,0.299,0.175,0.597,0.078,0.896c-0.096,0.299-0.287,0.522-0.571,0.671
	c-0.282,0.15-0.578,0.171-0.883,0.067c-0.307-0.105-0.534-0.299-0.684-0.581c-0.955-1.837-1.432-3.814-1.432-5.934
	c0-1.776,0.346-3.469,1.04-5.082c0.695-1.611,1.624-3,2.788-4.165c1.164-1.164,2.552-2.09,4.165-2.775
	c1.611-0.687,3.298-1.03,5.059-1.03c2.359,0,4.542,0.581,6.55,1.747c2.006,1.164,3.593,2.749,4.757,4.757
	c1.164,2.008,1.747,4.191,1.747,6.548C38.118,20.416,37.535,22.595,36.371,24.595z"/>
</svg>
